<?xml version="1.0" encoding="utf-8"?>
<!-- Generator: Adobe Illustrator 25.4.1, SVG Export Plug-In . SVG Version: 6.00 Build 0)  -->
<svg version="1.1" id="Capa_1" xmlns="http://www.w3.org/2000/svg" xmlns:xlink="http://www.w3.org/1999/xlink" x="0px" y="0px"
	 viewBox="0 0 100 100" style="enable-background:new 0 0 100 100;" xml:space="preserve">
<style type="text/css">
	.st0{fill:none;stroke:#FFFFFF;stroke-width:4;stroke-linecap:round;stroke-linejoin:round;}
</style>
<desc>Created with Sketch.</desc>
<g id="_x36_4.-Coins">
	<g transform="translate(-1.000000, 3.000000)">
		<path id="Layer-5" class="st0" d="M98.1,82.4c0,6.6-10.7,11.9-23.8,11.9s-23.8-5.3-23.8-11.9"/>
		<g id="Group" transform="translate(50.500000, 0.000000)">
			<path id="Layer-1" class="st0" d="M47.5,27c0,6.6-10.6,11.9-23.8,11.9S0,33.6,0,27"/>
			<path id="Layer-2" class="st0" d="M0,42L0,42c1.1,6.1,11.3,10.9,23.8,10.9S46.4,48.1,47.4,42h0.1"/>
			<path id="Layer-3" class="st0" d="M0,55L0,55c1.1,6.1,11.3,10.9,23.8,10.9S46.4,61.1,47.4,55h0.1"/>
			<path id="Layer-4" class="st0" d="M0,69L0,69c1.1,6.1,11.3,10.9,23.8,10.9S46.4,75.1,47.4,69h0.1"/>
			<ellipse id="Layer-6" class="st0" cx="23.8" cy="12.2" rx="23.8" ry="12.2"/>
		</g>
		<path id="Layer-7" class="st0" d="M98.1,13.6v68.6"/>
		<path id="Layer-8" class="st0" d="M3,55L3,55c1.1,6.1,11.3,10.9,23.8,10.9S49.5,61.1,50.5,55h0.1"/>
		<path id="Layer-9" class="st0" d="M3,69L3,69c1.1,6.1,11.3,10.9,23.8,10.9S49.5,75.1,50.5,69h0.1"/>
		<path id="Layer-10" class="st0" d="M50.5,82.4c0,6.6-10.7,11.9-23.8,11.9S2.9,88.9,2.9,82.4"/>
		<ellipse id="Layer-11" class="st0" cx="26.8" cy="40.2" rx="23.8" ry="12.2"/>
		<path id="Layer-12" class="st0" d="M2.9,41.1v41.2"/>
		<path id="Layer-13" class="st0" d="M50.5,13.6v68.6"/>
	</g>
</g>
</svg>
