<?xml version="1.0" encoding="utf-8"?>
<!-- Generator: Adobe Illustrator 25.4.1, SVG Export Plug-In . SVG Version: 6.00 Build 0)  -->
<svg version="1.1" id="Capa_1" xmlns="http://www.w3.org/2000/svg" xmlns:xlink="http://www.w3.org/1999/xlink" x="0px" y="0px"
	 viewBox="0 0 100 100" style="enable-background:new 0 0 100 100;" xml:space="preserve">
<style type="text/css">
	.st0{fill:none;stroke:#FFFFFF;stroke-width:4;stroke-linecap:round;stroke-linejoin:round;}
</style>
<desc>Created with Sketch.</desc>
<g id="_x34_8.-Home">
	<g transform="translate(5.000000, 2.000000)">
		<path id="Layer-1" class="st0" d="M46.1,0.6c-0.7-0.7-2-0.7-2.7,0L1.2,44c-1.9,2-1.3,3.6,1.5,3.6h7.8v46.5c0,1.1,0.9,1.9,1.9,1.9
			H77c1.1,0,1.9-0.9,1.9-1.9V47.6h7.8c2.8,0,3.5-1.7,1.6-3.7L75.4,29.6V6.7H62v9.6L46.1,0.6z"/>
		<polyline id="Layer-2" class="st0" points="31,96 31,54 31,54 59,54 59,96 		"/>
	</g>
</g>
</svg>
